<mxfile host="app.diagrams.net" modified="2023-05-10T07:48:47.479Z" agent="5.0 (Windows NT 10.0; Win64; x64) AppleWebKit/537.36 (KHTML, like Gecko) Chrome/112.0.0.0 Safari/537.36 Edg/112.0.1722.68" etag="XrUtyb_A6hTg-tln1FwO" version="21.0.10" type="github">
  <diagram name="第 1 页" id="KNalrMcwGUgygj8vXikO">
    <mxGraphModel dx="685" dy="401" grid="1" gridSize="10" guides="1" tooltips="1" connect="1" arrows="1" fold="1" page="1" pageScale="1" pageWidth="827" pageHeight="1169" math="0" shadow="0">
      <root>
        <mxCell id="0" />
        <mxCell id="1" parent="0" />
        <mxCell id="1s3CLB5jiB9u1vPCrkhs-38" style="rounded=0;orthogonalLoop=1;jettySize=auto;html=1;dashed=1;endArrow=none;exitX=0.499;exitY=0.034;exitDx=0;exitDy=0;exitPerimeter=0;" edge="1" parent="1" source="1s3CLB5jiB9u1vPCrkhs-21">
          <mxGeometry relative="1" as="geometry">
            <mxPoint x="399.1280013527223" y="260" as="sourcePoint" />
            <mxPoint x="360" y="210" as="targetPoint" />
          </mxGeometry>
        </mxCell>
        <mxCell id="1s3CLB5jiB9u1vPCrkhs-20" value="" style="shape=table;startSize=0;container=1;collapsible=0;childLayout=tableLayout;" vertex="1" parent="1">
          <mxGeometry x="180" y="260" width="240" height="20" as="geometry" />
        </mxCell>
        <mxCell id="1s3CLB5jiB9u1vPCrkhs-21" value="" style="shape=tableRow;horizontal=0;startSize=0;swimlaneHead=0;swimlaneBody=0;strokeColor=inherit;top=0;left=0;bottom=0;right=0;collapsible=0;dropTarget=0;fillColor=none;points=[[0,0.5],[1,0.5]];portConstraint=eastwest;" vertex="1" parent="1s3CLB5jiB9u1vPCrkhs-20">
          <mxGeometry width="240" height="20" as="geometry" />
        </mxCell>
        <mxCell id="1s3CLB5jiB9u1vPCrkhs-22" value="P1" style="shape=partialRectangle;html=1;whiteSpace=wrap;connectable=0;strokeColor=#b85450;overflow=hidden;fillColor=#f8cecc;top=0;left=0;bottom=0;right=0;pointerEvents=1;" vertex="1" parent="1s3CLB5jiB9u1vPCrkhs-21">
          <mxGeometry width="50" height="20" as="geometry">
            <mxRectangle width="50" height="20" as="alternateBounds" />
          </mxGeometry>
        </mxCell>
        <mxCell id="1s3CLB5jiB9u1vPCrkhs-23" value="P2" style="shape=partialRectangle;html=1;whiteSpace=wrap;connectable=0;strokeColor=#d79b00;overflow=hidden;fillColor=#ffe6cc;top=0;left=0;bottom=0;right=0;pointerEvents=1;" vertex="1" parent="1s3CLB5jiB9u1vPCrkhs-21">
          <mxGeometry x="50" width="70" height="20" as="geometry">
            <mxRectangle width="70" height="20" as="alternateBounds" />
          </mxGeometry>
        </mxCell>
        <mxCell id="1s3CLB5jiB9u1vPCrkhs-24" value="P3" style="shape=partialRectangle;html=1;whiteSpace=wrap;connectable=0;strokeColor=#6c8ebf;overflow=hidden;fillColor=#dae8fc;top=0;left=0;bottom=0;right=0;pointerEvents=1;" vertex="1" parent="1s3CLB5jiB9u1vPCrkhs-21">
          <mxGeometry x="120" width="80" height="20" as="geometry">
            <mxRectangle width="80" height="20" as="alternateBounds" />
          </mxGeometry>
        </mxCell>
        <mxCell id="1s3CLB5jiB9u1vPCrkhs-25" value="P4" style="shape=partialRectangle;html=1;whiteSpace=wrap;connectable=0;strokeColor=#666666;overflow=hidden;fillColor=#f5f5f5;top=0;left=0;bottom=0;right=0;pointerEvents=1;fontColor=#333333;" vertex="1" parent="1s3CLB5jiB9u1vPCrkhs-21">
          <mxGeometry x="200" width="40" height="20" as="geometry">
            <mxRectangle width="40" height="20" as="alternateBounds" />
          </mxGeometry>
        </mxCell>
        <mxCell id="1s3CLB5jiB9u1vPCrkhs-26" value="" style="shape=table;startSize=0;container=1;collapsible=0;childLayout=tableLayout;" vertex="1" parent="1">
          <mxGeometry x="95" y="190" width="435" height="20" as="geometry" />
        </mxCell>
        <mxCell id="1s3CLB5jiB9u1vPCrkhs-27" value="" style="shape=tableRow;horizontal=0;startSize=0;swimlaneHead=0;swimlaneBody=0;strokeColor=inherit;top=0;left=0;bottom=0;right=0;collapsible=0;dropTarget=0;fillColor=none;points=[[0,0.5],[1,0.5]];portConstraint=eastwest;" vertex="1" parent="1s3CLB5jiB9u1vPCrkhs-26">
          <mxGeometry width="435" height="20" as="geometry" />
        </mxCell>
        <mxCell id="1s3CLB5jiB9u1vPCrkhs-28" value="" style="shape=partialRectangle;html=1;whiteSpace=wrap;connectable=0;strokeColor=#b85450;overflow=hidden;fillColor=#f8cecc;top=0;left=0;bottom=0;right=0;pointerEvents=1;" vertex="1" parent="1s3CLB5jiB9u1vPCrkhs-27">
          <mxGeometry width="50" height="20" as="geometry">
            <mxRectangle width="50" height="20" as="alternateBounds" />
          </mxGeometry>
        </mxCell>
        <mxCell id="1s3CLB5jiB9u1vPCrkhs-44" style="shape=partialRectangle;html=1;whiteSpace=wrap;connectable=0;strokeColor=#d79b00;overflow=hidden;fillColor=#ffe6cc;top=0;left=0;bottom=0;right=0;pointerEvents=1;" vertex="1" parent="1s3CLB5jiB9u1vPCrkhs-27">
          <mxGeometry x="50" width="70" height="20" as="geometry">
            <mxRectangle width="70" height="20" as="alternateBounds" />
          </mxGeometry>
        </mxCell>
        <mxCell id="1s3CLB5jiB9u1vPCrkhs-29" value="" style="shape=partialRectangle;html=1;whiteSpace=wrap;connectable=0;strokeColor=#82b366;overflow=hidden;fillColor=#d5e8d4;top=0;left=0;bottom=0;right=0;pointerEvents=1;" vertex="1" parent="1s3CLB5jiB9u1vPCrkhs-27">
          <mxGeometry x="120" width="120" height="20" as="geometry">
            <mxRectangle width="120" height="20" as="alternateBounds" />
          </mxGeometry>
        </mxCell>
        <mxCell id="1s3CLB5jiB9u1vPCrkhs-30" value="" style="shape=partialRectangle;html=1;whiteSpace=wrap;connectable=0;strokeColor=inherit;overflow=hidden;fillColor=none;top=0;left=0;bottom=0;right=0;pointerEvents=1;" vertex="1" parent="1s3CLB5jiB9u1vPCrkhs-27">
          <mxGeometry x="240" width="25" height="20" as="geometry">
            <mxRectangle width="25" height="20" as="alternateBounds" />
          </mxGeometry>
        </mxCell>
        <mxCell id="1s3CLB5jiB9u1vPCrkhs-47" style="shape=partialRectangle;html=1;whiteSpace=wrap;connectable=0;strokeColor=#6c8ebf;overflow=hidden;fillColor=#dae8fc;top=0;left=0;bottom=0;right=0;pointerEvents=1;" vertex="1" parent="1s3CLB5jiB9u1vPCrkhs-27">
          <mxGeometry x="265" width="80" height="20" as="geometry">
            <mxRectangle width="80" height="20" as="alternateBounds" />
          </mxGeometry>
        </mxCell>
        <mxCell id="1s3CLB5jiB9u1vPCrkhs-31" value="" style="shape=partialRectangle;html=1;whiteSpace=wrap;connectable=0;strokeColor=#666666;overflow=hidden;fillColor=#f5f5f5;top=0;left=0;bottom=0;right=0;pointerEvents=1;fontColor=#333333;" vertex="1" parent="1s3CLB5jiB9u1vPCrkhs-27">
          <mxGeometry x="345" width="40" height="20" as="geometry">
            <mxRectangle width="40" height="20" as="alternateBounds" />
          </mxGeometry>
        </mxCell>
        <mxCell id="1s3CLB5jiB9u1vPCrkhs-59" style="shape=partialRectangle;html=1;whiteSpace=wrap;connectable=0;strokeColor=inherit;overflow=hidden;fillColor=none;top=0;left=0;bottom=0;right=0;pointerEvents=1;" vertex="1" parent="1s3CLB5jiB9u1vPCrkhs-27">
          <mxGeometry x="385" width="50" height="20" as="geometry">
            <mxRectangle width="50" height="20" as="alternateBounds" />
          </mxGeometry>
        </mxCell>
        <mxCell id="1s3CLB5jiB9u1vPCrkhs-36" value="" style="endArrow=none;html=1;rounded=0;exitX=0;exitY=1.008;exitDx=0;exitDy=0;exitPerimeter=0;dashed=1;entryX=0.013;entryY=0.09;entryDx=0;entryDy=0;entryPerimeter=0;" edge="1" parent="1" source="1s3CLB5jiB9u1vPCrkhs-27" target="1s3CLB5jiB9u1vPCrkhs-21">
          <mxGeometry width="50" height="50" relative="1" as="geometry">
            <mxPoint x="140" y="230" as="sourcePoint" />
            <mxPoint x="280" y="260" as="targetPoint" />
          </mxGeometry>
        </mxCell>
        <mxCell id="1s3CLB5jiB9u1vPCrkhs-37" value="" style="endArrow=none;html=1;rounded=0;exitX=0;exitY=1.008;exitDx=0;exitDy=0;exitPerimeter=0;dashed=1;entryX=0.209;entryY=-0.013;entryDx=0;entryDy=0;entryPerimeter=0;" edge="1" parent="1" target="1s3CLB5jiB9u1vPCrkhs-21">
          <mxGeometry width="50" height="50" relative="1" as="geometry">
            <mxPoint x="145" y="210" as="sourcePoint" />
            <mxPoint x="330" y="260" as="targetPoint" />
          </mxGeometry>
        </mxCell>
        <mxCell id="1s3CLB5jiB9u1vPCrkhs-39" style="rounded=0;orthogonalLoop=1;jettySize=auto;html=1;dashed=1;endArrow=none;exitX=0.836;exitY=0.011;exitDx=0;exitDy=0;exitPerimeter=0;" edge="1" parent="1" source="1s3CLB5jiB9u1vPCrkhs-21">
          <mxGeometry relative="1" as="geometry">
            <mxPoint x="479.1280013527223" y="260" as="sourcePoint" />
            <mxPoint x="440" y="210" as="targetPoint" />
          </mxGeometry>
        </mxCell>
        <mxCell id="1s3CLB5jiB9u1vPCrkhs-40" value="Tensor 2" style="rounded=0;whiteSpace=wrap;html=1;fillColor=#d5e8d4;strokeColor=#82b366;" vertex="1" parent="1">
          <mxGeometry x="470" y="260" width="120" height="20" as="geometry" />
        </mxCell>
        <mxCell id="1s3CLB5jiB9u1vPCrkhs-41" value="" style="shape=curlyBracket;whiteSpace=wrap;html=1;rounded=1;flipH=1;labelPosition=right;verticalLabelPosition=middle;align=left;verticalAlign=middle;rotation=90;" vertex="1" parent="1">
          <mxGeometry x="290" y="170" width="20" height="240" as="geometry" />
        </mxCell>
        <mxCell id="1s3CLB5jiB9u1vPCrkhs-43" value="Tensor 1" style="text;html=1;strokeColor=none;fillColor=none;align=center;verticalAlign=middle;whiteSpace=wrap;rounded=0;" vertex="1" parent="1">
          <mxGeometry x="270" y="291" width="60" height="30" as="geometry" />
        </mxCell>
        <mxCell id="1s3CLB5jiB9u1vPCrkhs-45" value="" style="endArrow=none;html=1;rounded=0;exitX=0;exitY=1.008;exitDx=0;exitDy=0;exitPerimeter=0;dashed=1;entryX=0.209;entryY=-0.013;entryDx=0;entryDy=0;entryPerimeter=0;" edge="1" parent="1">
          <mxGeometry width="50" height="50" relative="1" as="geometry">
            <mxPoint x="214" y="210" as="sourcePoint" />
            <mxPoint x="299" y="260" as="targetPoint" />
          </mxGeometry>
        </mxCell>
        <mxCell id="1s3CLB5jiB9u1vPCrkhs-48" value="" style="endArrow=none;html=1;rounded=0;dashed=1;entryX=0.209;entryY=-0.013;entryDx=0;entryDy=0;entryPerimeter=0;exitX=0.274;exitY=1.084;exitDx=0;exitDy=0;exitPerimeter=0;" edge="1" parent="1" source="1s3CLB5jiB9u1vPCrkhs-27">
          <mxGeometry width="50" height="50" relative="1" as="geometry">
            <mxPoint x="220" y="210" as="sourcePoint" />
            <mxPoint x="470" y="260" as="targetPoint" />
          </mxGeometry>
        </mxCell>
        <mxCell id="1s3CLB5jiB9u1vPCrkhs-49" value="" style="endArrow=none;html=1;rounded=0;exitX=0.551;exitY=1.057;exitDx=0;exitDy=0;exitPerimeter=0;dashed=1;entryX=0.209;entryY=-0.013;entryDx=0;entryDy=0;entryPerimeter=0;" edge="1" parent="1" source="1s3CLB5jiB9u1vPCrkhs-27">
          <mxGeometry width="50" height="50" relative="1" as="geometry">
            <mxPoint x="505" y="210" as="sourcePoint" />
            <mxPoint x="590" y="260" as="targetPoint" />
          </mxGeometry>
        </mxCell>
        <mxCell id="1s3CLB5jiB9u1vPCrkhs-50" value="" style="shape=table;startSize=0;container=1;collapsible=0;childLayout=tableLayout;fillStyle=hatch;fillColor=#f8cecc;strokeColor=default;" vertex="1" parent="1">
          <mxGeometry x="60" y="110" width="300" height="20" as="geometry" />
        </mxCell>
        <mxCell id="1s3CLB5jiB9u1vPCrkhs-51" value="" style="shape=tableRow;horizontal=0;startSize=0;swimlaneHead=0;swimlaneBody=0;strokeColor=inherit;top=0;left=0;bottom=0;right=0;collapsible=0;dropTarget=0;fillColor=none;points=[[0,0.5],[1,0.5]];portConstraint=eastwest;" vertex="1" parent="1s3CLB5jiB9u1vPCrkhs-50">
          <mxGeometry width="300" height="20" as="geometry" />
        </mxCell>
        <mxCell id="1s3CLB5jiB9u1vPCrkhs-52" value="P1" style="shape=partialRectangle;html=1;whiteSpace=wrap;connectable=0;strokeColor=inherit;overflow=hidden;fillColor=none;top=0;left=0;bottom=0;right=0;pointerEvents=1;" vertex="1" parent="1s3CLB5jiB9u1vPCrkhs-51">
          <mxGeometry width="50" height="20" as="geometry">
            <mxRectangle width="50" height="20" as="alternateBounds" />
          </mxGeometry>
        </mxCell>
        <mxCell id="1s3CLB5jiB9u1vPCrkhs-53" value="P2" style="shape=partialRectangle;html=1;whiteSpace=wrap;connectable=0;strokeColor=inherit;overflow=hidden;fillColor=none;top=0;left=0;bottom=0;right=0;pointerEvents=1;" vertex="1" parent="1s3CLB5jiB9u1vPCrkhs-51">
          <mxGeometry x="50" width="70" height="20" as="geometry">
            <mxRectangle width="70" height="20" as="alternateBounds" />
          </mxGeometry>
        </mxCell>
        <mxCell id="1s3CLB5jiB9u1vPCrkhs-54" value="P4" style="shape=partialRectangle;html=1;whiteSpace=wrap;connectable=0;strokeColor=inherit;overflow=hidden;fillColor=none;top=0;left=0;bottom=0;right=0;pointerEvents=1;" vertex="1" parent="1s3CLB5jiB9u1vPCrkhs-51">
          <mxGeometry x="120" width="40" height="20" as="geometry">
            <mxRectangle width="40" height="20" as="alternateBounds" />
          </mxGeometry>
        </mxCell>
        <mxCell id="1s3CLB5jiB9u1vPCrkhs-55" value="Tensor 2" style="shape=partialRectangle;html=1;whiteSpace=wrap;connectable=0;strokeColor=inherit;overflow=hidden;fillColor=none;top=0;left=0;bottom=0;right=0;pointerEvents=1;" vertex="1" parent="1s3CLB5jiB9u1vPCrkhs-51">
          <mxGeometry x="160" width="120" height="20" as="geometry">
            <mxRectangle width="120" height="20" as="alternateBounds" />
          </mxGeometry>
        </mxCell>
        <mxCell id="1s3CLB5jiB9u1vPCrkhs-76" style="shape=partialRectangle;html=1;whiteSpace=wrap;connectable=0;strokeColor=inherit;overflow=hidden;fillColor=default;top=0;left=0;bottom=0;right=0;pointerEvents=1;" vertex="1" parent="1s3CLB5jiB9u1vPCrkhs-51">
          <mxGeometry x="280" width="20" height="20" as="geometry">
            <mxRectangle width="20" height="20" as="alternateBounds" />
          </mxGeometry>
        </mxCell>
        <mxCell id="1s3CLB5jiB9u1vPCrkhs-60" style="rounded=0;orthogonalLoop=1;jettySize=auto;html=1;dashed=1;endArrow=none;exitX=0.836;exitY=0.011;exitDx=0;exitDy=0;exitPerimeter=0;" edge="1" parent="1">
          <mxGeometry relative="1" as="geometry">
            <mxPoint x="420" y="259" as="sourcePoint" />
            <mxPoint x="479" y="209" as="targetPoint" />
          </mxGeometry>
        </mxCell>
        <mxCell id="1s3CLB5jiB9u1vPCrkhs-61" style="rounded=0;orthogonalLoop=1;jettySize=auto;html=1;dashed=1;endArrow=none;exitX=0.836;exitY=0.011;exitDx=0;exitDy=0;exitPerimeter=0;entryX=0.001;entryY=1.009;entryDx=0;entryDy=0;entryPerimeter=0;" edge="1" parent="1" target="1s3CLB5jiB9u1vPCrkhs-51">
          <mxGeometry relative="1" as="geometry">
            <mxPoint x="95" y="190" as="sourcePoint" />
            <mxPoint x="154" y="140" as="targetPoint" />
          </mxGeometry>
        </mxCell>
        <mxCell id="1s3CLB5jiB9u1vPCrkhs-64" style="rounded=0;orthogonalLoop=1;jettySize=auto;html=1;dashed=1;endArrow=none;exitX=0.836;exitY=0.011;exitDx=0;exitDy=0;exitPerimeter=0;entryX=0.163;entryY=1.029;entryDx=0;entryDy=0;entryPerimeter=0;" edge="1" parent="1" target="1s3CLB5jiB9u1vPCrkhs-51">
          <mxGeometry relative="1" as="geometry">
            <mxPoint x="145" y="190" as="sourcePoint" />
            <mxPoint x="170" y="130" as="targetPoint" />
          </mxGeometry>
        </mxCell>
        <mxCell id="1s3CLB5jiB9u1vPCrkhs-65" style="rounded=0;orthogonalLoop=1;jettySize=auto;html=1;dashed=1;endArrow=none;exitX=0.836;exitY=0.011;exitDx=0;exitDy=0;exitPerimeter=0;entryX=0.402;entryY=1.029;entryDx=0;entryDy=0;entryPerimeter=0;" edge="1" parent="1" target="1s3CLB5jiB9u1vPCrkhs-51">
          <mxGeometry relative="1" as="geometry">
            <mxPoint x="215" y="189" as="sourcePoint" />
            <mxPoint x="240" y="129" as="targetPoint" />
          </mxGeometry>
        </mxCell>
        <mxCell id="1s3CLB5jiB9u1vPCrkhs-66" style="rounded=0;orthogonalLoop=1;jettySize=auto;html=1;dashed=1;endArrow=none;exitX=0.884;exitY=-0.074;exitDx=0;exitDy=0;exitPerimeter=0;" edge="1" parent="1" source="1s3CLB5jiB9u1vPCrkhs-27">
          <mxGeometry relative="1" as="geometry">
            <mxPoint x="255" y="189" as="sourcePoint" />
            <mxPoint x="220" y="130" as="targetPoint" />
          </mxGeometry>
        </mxCell>
        <mxCell id="1s3CLB5jiB9u1vPCrkhs-67" style="rounded=0;orthogonalLoop=1;jettySize=auto;html=1;dashed=1;endArrow=none;exitX=0.884;exitY=-0.074;exitDx=0;exitDy=0;exitPerimeter=0;entryX=0.402;entryY=1.029;entryDx=0;entryDy=0;entryPerimeter=0;" edge="1" parent="1" target="1s3CLB5jiB9u1vPCrkhs-51">
          <mxGeometry relative="1" as="geometry">
            <mxPoint x="441" y="190" as="sourcePoint" />
            <mxPoint x="241" y="130" as="targetPoint" />
          </mxGeometry>
        </mxCell>
        <mxCell id="1s3CLB5jiB9u1vPCrkhs-69" value="" style="shape=table;startSize=0;container=1;collapsible=0;childLayout=tableLayout;" vertex="1" parent="1">
          <mxGeometry x="400" y="110" width="215" height="20" as="geometry" />
        </mxCell>
        <mxCell id="1s3CLB5jiB9u1vPCrkhs-70" value="" style="shape=tableRow;horizontal=0;startSize=0;swimlaneHead=0;swimlaneBody=0;strokeColor=inherit;top=0;left=0;bottom=0;right=0;collapsible=0;dropTarget=0;fillColor=none;points=[[0,0.5],[1,0.5]];portConstraint=eastwest;" vertex="1" parent="1s3CLB5jiB9u1vPCrkhs-69">
          <mxGeometry width="215" height="20" as="geometry" />
        </mxCell>
        <mxCell id="1s3CLB5jiB9u1vPCrkhs-71" value="P3" style="shape=partialRectangle;html=1;whiteSpace=wrap;connectable=0;strokeColor=inherit;overflow=hidden;fillColor=#D4E1F5;top=0;left=0;bottom=0;right=0;pointerEvents=1;fillStyle=hatch;" vertex="1" parent="1s3CLB5jiB9u1vPCrkhs-70">
          <mxGeometry width="80" height="20" as="geometry">
            <mxRectangle width="80" height="20" as="alternateBounds" />
          </mxGeometry>
        </mxCell>
        <mxCell id="1s3CLB5jiB9u1vPCrkhs-72" style="shape=partialRectangle;html=1;whiteSpace=wrap;connectable=0;strokeColor=inherit;overflow=hidden;fillColor=none;top=0;left=0;bottom=0;right=0;pointerEvents=1;" vertex="1" parent="1s3CLB5jiB9u1vPCrkhs-70">
          <mxGeometry x="80" width="135" height="20" as="geometry">
            <mxRectangle width="135" height="20" as="alternateBounds" />
          </mxGeometry>
        </mxCell>
        <mxCell id="1s3CLB5jiB9u1vPCrkhs-73" style="rounded=0;orthogonalLoop=1;jettySize=auto;html=1;dashed=1;endArrow=none;exitX=0.276;exitY=-0.047;exitDx=0;exitDy=0;exitPerimeter=0;entryX=0.535;entryY=0.947;entryDx=0;entryDy=0;entryPerimeter=0;" edge="1" parent="1" target="1s3CLB5jiB9u1vPCrkhs-51">
          <mxGeometry relative="1" as="geometry">
            <mxPoint x="216.06000000000006" y="189.05999999999995" as="sourcePoint" />
            <mxPoint x="280" y="130" as="targetPoint" />
          </mxGeometry>
        </mxCell>
        <mxCell id="1s3CLB5jiB9u1vPCrkhs-75" style="rounded=0;orthogonalLoop=1;jettySize=auto;html=1;dashed=1;endArrow=none;exitX=0.276;exitY=-0.047;exitDx=0;exitDy=0;exitPerimeter=0;entryX=0.934;entryY=1.029;entryDx=0;entryDy=0;entryPerimeter=0;" edge="1" parent="1" target="1s3CLB5jiB9u1vPCrkhs-51">
          <mxGeometry relative="1" as="geometry">
            <mxPoint x="334" y="190" as="sourcePoint" />
            <mxPoint x="400" y="130" as="targetPoint" />
          </mxGeometry>
        </mxCell>
        <mxCell id="1s3CLB5jiB9u1vPCrkhs-77" style="rounded=0;orthogonalLoop=1;jettySize=auto;html=1;dashed=1;endArrow=none;exitX=0.612;exitY=-0.047;exitDx=0;exitDy=0;exitPerimeter=0;entryX=0.934;entryY=1.029;entryDx=0;entryDy=0;entryPerimeter=0;" edge="1" parent="1" source="1s3CLB5jiB9u1vPCrkhs-27">
          <mxGeometry relative="1" as="geometry">
            <mxPoint x="394" y="190" as="sourcePoint" />
            <mxPoint x="400" y="131" as="targetPoint" />
          </mxGeometry>
        </mxCell>
        <mxCell id="1s3CLB5jiB9u1vPCrkhs-78" style="rounded=0;orthogonalLoop=1;jettySize=auto;html=1;dashed=1;endArrow=none;exitX=0.612;exitY=-0.047;exitDx=0;exitDy=0;exitPerimeter=0;entryX=0.934;entryY=1.029;entryDx=0;entryDy=0;entryPerimeter=0;" edge="1" parent="1">
          <mxGeometry relative="1" as="geometry">
            <mxPoint x="441" y="189" as="sourcePoint" />
            <mxPoint x="480" y="131" as="targetPoint" />
          </mxGeometry>
        </mxCell>
        <mxCell id="1s3CLB5jiB9u1vPCrkhs-79" value="" style="shape=curlyBracket;whiteSpace=wrap;html=1;rounded=1;labelPosition=left;verticalLabelPosition=middle;align=right;verticalAlign=middle;rotation=90;" vertex="1" parent="1">
          <mxGeometry x="200" y="-50" width="20" height="300" as="geometry" />
        </mxCell>
        <mxCell id="1s3CLB5jiB9u1vPCrkhs-80" value="" style="shape=curlyBracket;whiteSpace=wrap;html=1;rounded=1;labelPosition=left;verticalLabelPosition=middle;align=right;verticalAlign=middle;rotation=90;" vertex="1" parent="1">
          <mxGeometry x="497.5" y="-7.5" width="20" height="215" as="geometry" />
        </mxCell>
        <mxCell id="1s3CLB5jiB9u1vPCrkhs-81" value="&lt;b&gt;DRAM&lt;/b&gt;" style="text;html=1;strokeColor=none;fillColor=none;align=center;verticalAlign=middle;whiteSpace=wrap;rounded=0;" vertex="1" parent="1">
          <mxGeometry x="180" y="67" width="60" height="30" as="geometry" />
        </mxCell>
        <mxCell id="1s3CLB5jiB9u1vPCrkhs-82" value="&lt;b&gt;PMEM&lt;/b&gt;" style="text;html=1;strokeColor=none;fillColor=none;align=center;verticalAlign=middle;whiteSpace=wrap;rounded=0;" vertex="1" parent="1">
          <mxGeometry x="445" y="67" width="60" height="30" as="geometry" />
        </mxCell>
      </root>
    </mxGraphModel>
  </diagram>
</mxfile>
